<svg xmlns="http://www.w3.org/2000/svg" version="1.1" xmlns:xlink="http://www.w3.org/1999/xlink" xmlns:svgjs="http://svgjs.dev/svgjs" width="1440" height="560" preserveAspectRatio="none" viewBox="0 0 1440 560"><g mask="url(&quot;#SvgjsMask1000&quot;)" fill="none"><rect width="1440" height="560" x="0" y="0" fill="#0e2a47"></rect><path d="M280 126C257.33 126 233.33 131.14 233.33 140C233.33 149.43 258.07 162.58 280 162.58C294.86 162.58 306.92 149.81 306.92 140C306.92 131.52 294.12 126 280 126" stroke="rgba(51, 121, 194, 0.58)" stroke-width="2"></path><path d="M840 82.86C802.1 96.51 777.78 113.34 777.78 140C777.78 164.13 804.29 176.4 840 184.44C905.4 199.15 918.76 201.48 980 185.5C1003.92 179.26 1010.33 164.22 1010.33 140C1010.33 105.07 1010.57 77.45 980 67.2C925.4 48.88 903.21 60.11 840 82.86" stroke="rgba(51, 121, 194, 0.58)" stroke-width="2"></path><path d="M1260 114.55C1247.24 114.55 1235.44 127.69 1235.44 140C1235.44 151.53 1247.31 162.22 1260 162.22C1273.87 162.22 1288.57 151.59 1288.57 140C1288.57 127.75 1273.8 114.55 1260 114.55" stroke="rgba(51, 121, 194, 0.58)" stroke-width="2"></path><path d="M1354.03 0C1383.48 10.62 1373.05 50.49 1400 50.49C1440.04 50.49 1441.72 16.69 1488 0C1511.72 -8.55 1532.96 -18.96 1540 0C1558.96 51.04 1540 70 1540 140C1540 210 1540 210 1540 280C1540 350 1540 350 1540 420C1540 490 1575 525 1540 560C1505 595 1470 560 1400 560C1351.64 560 1348.37 570.09 1303.27 560C1278.37 554.43 1285.3 532.7 1260 528.68C1193.67 518.15 1185.3 518.79 1120 530.91C1100.94 534.45 1110.09 556.09 1091.28 560C1040.09 570.64 1035.64 560 980 560C918.88 560 915.36 567.98 857.75 560C845.36 558.29 848.65 540.62 840 540.62C831.7 540.62 835.7 558.36 823.85 560C765.7 568.05 761.92 560 700 560C630 560 630 560 560 560C490 560 490 560 420 560C350 560 350 560 280 560C210 560 210 560 140 560C70 560 35 595 0 560C-35 525 0 490 0 420C0 350 0 350 0 280C0 210 0 210 0 140C0 70 -35 35 0 0C35 -35 70 0 140 0C210 0 210 0 280 0C350 0 350 0 420 0C490 0 490 0 560 0C630 0 630 0 700 0C770 0 770 0 840 0C910 0 910 0 980 0C1050 0 1050 0 1120 0C1190 0 1190 0 1260 0C1307.01 0 1313.48 -14.62 1354.03 0" stroke="rgba(51, 121, 194, 0.58)" stroke-width="2"></path><path d="M1120 257.5C1104 257.5 1085 269.59 1085 280C1085 289.84 1103.63 298 1120 298C1131.29 298 1140.32 289.57 1140.32 280C1140.32 269.32 1131.66 257.5 1120 257.5" stroke="rgba(51, 121, 194, 0.58)" stroke-width="2"></path><path d="M1400 243.02C1385.44 243.02 1370.75 262.41 1370.75 280C1370.75 295.31 1385.43 308.82 1400 308.82C1414.46 308.82 1428.82 295.3 1428.82 280C1428.82 262.4 1414.48 243.02 1400 243.02" stroke="rgba(51, 121, 194, 0.58)" stroke-width="2"></path><path d="M0 123.2C7.36 123.2 12.71 130.34 23.33 140C82.71 194 71.91 214.59 140 250.53C200.25 282.33 210.3 261.94 280 275.48C286.13 276.67 288.84 274.56 291.67 280C326.43 346.82 318.44 352.81 355.19 420C382.6 470.11 389.87 514.59 420 514.59C448.39 514.59 439.93 462.71 472.24 420C509.93 370.18 507.72 361.68 560 329.54C621.6 291.68 630 304.77 700 280C700 280 700 280 700 280C770 260 769.57 241.76 840 240C909.57 238.26 911.12 254.36 980 273C985.01 274.36 983.18 277.53 987.78 280C1053.18 315.03 1058.16 348 1120 348C1162.66 348 1159.24 314.91 1196.77 280C1229.24 249.8 1228.99 217.78 1260 217.78C1289.86 217.78 1288.59 249.54 1318.51 280C1358.59 320.8 1359.4 360.29 1400 360.29C1440.29 360.29 1480.29 322.62 1480.29 280C1480.29 230.97 1442.44 226.38 1400 176.98C1382.3 156.38 1360 157.8 1360 140C1360 123.24 1376.39 116.65 1400 107.87C1466.39 83.17 1492.19 62.07 1540 73.04C1562.19 78.13 1540 106.52 1540 140C1540 210 1540 210 1540 280C1540 324.13 1554.14 329.99 1540 368.26C1528.27 399.99 1488.26 393.23 1488.26 420C1488.26 448.85 1527.2 444.86 1540 479.5C1553.07 514.86 1565.56 545.31 1540 560C1495.56 585.56 1470 560 1400 560C1383.45 560 1380.94 567.76 1366.91 560C1310.94 529.07 1319.9 500.72 1260 482.63C1196.44 463.44 1181.09 463.32 1120 485.45C1074.3 502.01 1089.25 537.19 1046.41 560C1019.25 574.46 1013.2 560 980 560C943.52 560 936.69 575.51 907.04 560C866.69 538.89 872.67 486.77 840 486.77C808.63 486.77 817.25 539.97 778.97 560C747.25 576.59 739.49 560 700 560C630 560 630 560 560 560C490 560 490 560 420 560C350 560 350 560 280 560C210 560 210 560 140 560C70 560 35 595 0 560C-35 525 0 490 0 420C0 350 0 350 0 280C0 210 0 210 0 140C0 131.6 -4.3 123.2 0 123.2" stroke="rgba(51, 121, 194, 0.58)" stroke-width="2"></path><path d="M140 70C101.59 59.07 83.24 21.47 83.24 0C83.24 -13.53 111.62 0 140 0C210 0 210 0 280 0C350 0 350 0 420 0C475.47 0 530.94 -25.31 530.94 0C530.94 38.61 485.02 113.32 420 127.83C359.55 141.32 353.91 71.27 280 56C213.91 42.35 199.97 87.07 140 70" stroke="rgba(51, 121, 194, 0.58)" stroke-width="2"></path><path d="M700 140C642.16 137.27 597.56 44.01 597.56 0C597.56 -25.99 648.78 0 700 0C770 0 770 0 840 0C856.47 0 872.94 -2.78 872.94 0C872.94 2.94 853.4 0.58 840 11.43C766.93 70.58 763.38 142.99 700 140" stroke="rgba(51, 121, 194, 0.58)" stroke-width="2"></path><path d="M1068.67 140C1035.05 75.26 1003.46 41.63 1018.72 0C1029.12 -28.37 1069.36 0 1120 0C1190 0 1190 0 1260 0C1280.89 0 1301.79 -9.88 1301.79 0C1301.79 15.57 1282.18 26.6 1260 50.91C1218.31 96.6 1217.17 95.61 1174.04 140C1147.17 167.65 1146.67 195 1120 195C1093.98 195 1085.69 172.76 1068.67 140" stroke="rgba(51, 121, 194, 0.58)" stroke-width="2"></path><path d="M140 311.11C118.56 311.11 99.17 368.34 99.17 420C99.17 450.79 118.84 476 140 476C162.05 476 185.58 451.29 185.58 420C185.58 368.85 161.76 311.11 140 311.11" stroke="rgba(51, 121, 194, 0.58)" stroke-width="2"></path><path d="M420 51.74C371.29 51.74 311.82 13.6 311.82 0C311.82 -12.27 365.91 0 420 0C442.46 0 464.91 -10.24 464.91 0C464.91 15.63 447.83 51.74 420 51.74" stroke="rgba(51, 121, 194, 0.58)" stroke-width="2"></path><path d="M700 23.33C690.15 23.33 682.93 7.33 682.93 0C682.93 -4.33 691.46 0 700 0C713.46 0 726.92 -5.02 726.92 0C726.92 6.64 712.14 23.33 700 23.33" stroke="rgba(51, 121, 194, 0.58)" stroke-width="2"></path><path d="M1120 105C1094.34 105 1093.19 42.09 1093.19 0C1093.19 -10.41 1106.6 0 1120 0C1165 0 1210 -20.7 1210 0C1210 31.8 1152.75 105 1120 105" stroke="rgba(51, 121, 194, 0.58)" stroke-width="2"></path><path d="M1253.23 280C1256.78 276.84 1256.68 273.33 1260 273.33C1263.2 273.33 1263.02 276.78 1266.27 280C1333.02 346 1332.35 346.84 1400 411.76C1405.3 416.84 1412.17 413.86 1412.17 420C1412.17 435.48 1415.82 453.28 1400 455C1339.73 461.57 1330.29 440.35 1260 436.58C1190.29 432.85 1188.71 445.9 1120 440C1092.16 437.61 1066.9 430.43 1066.9 420C1066.9 409.43 1097.26 415.09 1120 398C1190.42 345.09 1186.78 339.18 1253.23 280" stroke="rgba(51, 121, 194, 0.58)" stroke-width="2"></path><path d="M1531.76 280C1531.76 265.14 1537.91 248.89 1540 248.89C1542.03 248.89 1540 264.44 1540 280C1540 286.09 1541.87 292.17 1540 292.17C1537.75 292.17 1531.76 286.78 1531.76 280" stroke="rgba(51, 121, 194, 0.58)" stroke-width="2"></path><path d="M0 305.45C6.65 305.45 26.25 365.03 26.25 420C26.25 442.63 7.13 460.65 0 460.65C-5.99 460.65 0 440.33 0 420C0 362.73 -6.48 305.45 0 305.45" stroke="rgba(51, 121, 194, 0.58)" stroke-width="2"></path><path d="M266.98 420C266.98 409.34 273.98 400 280 400C285.68 400 290.37 409.55 290.37 420C290.37 436.02 285.77 452.94 280 452.94C274.08 452.94 266.98 435.81 266.98 420" stroke="rgba(51, 121, 194, 0.58)" stroke-width="2"></path><path d="M524.48 420C534.22 397.07 537.95 383.38 560 383.38C607.45 383.38 615.27 395.82 663.48 420C685.27 430.93 689.14 432.07 700 453.6C724.45 502.07 734.1 519.24 734.1 560C734.1 572.44 717.05 560 700 560C630 560 630 560 560 560C522.5 560 491.04 583.81 485 560C473.28 513.81 496.72 485.38 524.48 420" stroke="rgba(51, 121, 194, 0.58)" stroke-width="2"></path><path d="M770 420C770 397.81 810.36 355.38 840 355.38C862.86 355.38 875 394.28 875 420C875 433.05 858.05 432.92 840 432.92C805.55 432.92 770 436.58 770 420" stroke="rgba(51, 121, 194, 0.58)" stroke-width="2"></path><path d="M956.34 560C956.34 539.84 968.63 504 980 504C991.23 504 1001.54 539.4 1001.54 560C1001.54 567.4 990.77 560 980 560C968.17 560 956.34 567.84 956.34 560" stroke="rgba(51, 121, 194, 0.58)" stroke-width="2"></path></g><defs><mask id="SvgjsMask1000"><rect width="1440" height="560" fill="#ffffff"></rect></mask></defs></svg>